<svg width="30" height="29" viewBox="0 0 30 29" fill="none" xmlns="http://www.w3.org/2000/svg">
<path d="M18.0005 12C18.0005 10.8954 18.8959 10 20.0005 10H28.0005C29.1051 10 30.0005 10.8954 30.0005 12V27C30.0005 28.1046 29.1051 29 28.0005 29H20.0005C18.8959 29 18.0005 28.1046 18.0005 27V12Z" fill="url(#paint0_linear_5_846)"/>
<path d="M0.000488281 2C0.000488281 0.89543 0.895919 0 2.00049 0H19.9116C21.0162 0 21.9116 0.895431 21.9116 2V27.0081C21.9116 28.1082 21.0198 29 19.9197 29V29C8.91861 29 0.000488281 20.0819 0.000488281 9.0808V2Z" fill="url(#paint1_linear_5_846)"/>
<path d="M7.00049 6C7.00049 5.44772 7.4482 5 8.00049 5H17.0005C17.5528 5 18.0005 5.44772 18.0005 6V6C18.0005 6.55228 17.5528 7 17.0005 7H8.00049C7.4482 7 7.00049 6.55228 7.00049 6V6Z" fill="white"/>
<path d="M7.00049 12C7.00049 11.4477 7.4482 11 8.00049 11H17.0005C17.5528 11 18.0005 11.4477 18.0005 12V12C18.0005 12.5523 17.5528 13 17.0005 13H8.00049C7.4482 13 7.00049 12.5523 7.00049 12V12Z" fill="white"/>
<path d="M7.00049 18C7.00049 17.4477 7.4482 17 8.00049 17H17.0005C17.5528 17 18.0005 17.4477 18.0005 18V18C18.0005 18.5523 17.5528 19 17.0005 19H8.00049C7.4482 19 7.00049 18.5523 7.00049 18V18Z" fill="white"/>
<defs>
<linearGradient id="paint0_linear_5_846" x1="24.0005" y1="10" x2="24.0005" y2="29" gradientUnits="userSpaceOnUse">
<stop stop-color="#FF8989"/>
<stop offset="1" stop-color="#FF6969"/>
</linearGradient>
<linearGradient id="paint1_linear_5_846" x1="10.956" y1="0" x2="10.956" y2="29" gradientUnits="userSpaceOnUse">
<stop stop-color="#4647FF"/>
<stop offset="1" stop-color="#9899FF"/>
</linearGradient>
</defs>
</svg>
