<svg width="50" height="50" viewBox="0 0 50 50" fill="none" xmlns="http://www.w3.org/2000/svg">
<circle cx="25" cy="25" r="24.3" stroke="#DFDFDF" stroke-width="1.4"/>
<path d="M31.61 31.3317L30.6364 20.4891C30.6098 20.193 30.3617 19.9662 30.0644 19.9662H28.0566V19.0606C28.0566 17.373 26.6837 16 24.9961 16C23.3087 16 21.9359 17.373 21.9359 19.0606V19.9662H19.9267C19.6295 19.9662 19.3813 20.193 19.3547 20.4891L18.3773 31.3743C18.3629 31.535 18.4167 31.6942 18.5255 31.8132C18.6343 31.9322 18.7881 31.9999 18.9493 31.9999H31.0419C31.0424 31.9999 31.043 31.9999 31.0434 31.9999C31.3607 31.9999 31.6177 31.7428 31.6177 31.4256C31.6177 31.3937 31.6151 31.3622 31.61 31.3317ZM23.0845 19.0606C23.0845 18.0063 23.9421 17.1486 24.9962 17.1486C26.0505 17.1486 26.9081 18.0063 26.9081 19.0606V19.9662H23.0845V19.0606ZM19.5775 30.8514L20.4518 21.1147H21.9359V22.1417C21.9359 22.4589 22.1929 22.716 22.5102 22.716C22.8274 22.716 23.0845 22.4589 23.0845 22.1417V21.1147H26.9081V22.1417C26.9081 22.4589 27.1652 22.716 27.4824 22.716C27.7997 22.716 28.0567 22.4589 28.0567 22.1417V21.1147H29.5394L30.4137 30.8514H19.5775Z" fill="#6B7275"/>
</svg>
